# xmcd
#
# Track frame offsets:
#	150
#	11417
#	28800
#	41125
#	57437
#	69205
#	81824
#	92838
#	103891
#	117765
#	129132
#
# Disc length: 1932 seconds
#
# Revision: 1
# Processed by: cddbd v1.5.2PL0 Copyright (c) Steve Scherf et al.
# Submitted via: EasyCDDAExtractor 10.5.1.1
#
DISCID=89078a0b
DTITLE=Manfred Mann's Earth Band - Pretty Flamingo (Us)
DYEAR=1966
DGENRE=Blues
TTITLE0=Pretty Flamingo
TTITLE1=Let's Go Get Stoned
TTITLE2=Tired Of Trying, Bored With Living, Scared Of Dying
TTITLE3=I Put A Spell On You
TTITLE4=It's Getting Late
TTITLE5=You're Standing By
TTITLE6=Machines
TTITLE7=Stay Around
TTITLE8=Tennessee Waltz
TTITLE9=Driva Man
TTITLE10=Do You Have To Do That
EXTD=
EXTT0=
EXTT1=
EXTT2=
EXTT3=
EXTT4=
EXTT5=
EXTT6=
EXTT7=
EXTT8=
EXTT9=
EXTT10=
PLAYORDER=
